<svg width="40" height="40" viewBox="0 0 40 40" xmlns="http://www.w3.org/2000/svg" role="img" aria-labelledby="title">
  <title id="title">Amazon Cognito</title>
  <rect width="40" height="40" fill="#DD344C"/>
  <path fill="#FFF" d="M9 17h6v-1H9v1Zm22-4V9.3c0-.717-.465-1.3-1.037-1.3H8.037C7.475 8 7 8.596 7 9.3V13h11V9.5a.5.5 0 0 1 .5-.5h11a.5.5 0 0 1 .5.5V13h1Zm-9 1a2 2 0 1 0 4 0 2 2 0 0 0-4 0Zm9 0h-1v5h-1v-9H19v8.696a6.16 6.16 0 0 1 3.097-2.396A2.99 2.99 0 0 1 21 14a3 3 0 1 1 4.823 2.366 6.2 6.2 0 0 1 2.958 2.354l-.855.518a5.17 5.17 0 0 0-2.633-2.02 3.1 3.1 0 0 1-2.836 0A5.21 5.21 0 0 0 19.216 21H23v1h-4.5a.5.5 0 0 1-.5-.5V14H7v9.701C7 24.405 7.475 25 8.037 25H21v1H8.037C6.914 26 6 24.969 6 23.701V9.3C6 8.032 6.914 7 8.037 7h21.926C31.086 7 32 8.032 32 9.3V21h-1V14Zm2 14a5 5 0 1 0-10 0 5 5 0 0 0 10 0Zm1 0a6 6 0 1 1-12 0 6 6 0 0 1 12 0Zm-6.138 1.862 3.714-3.713-.707-.707-3.36 3.36-1.514-1.514-.707.707 1.867 1.867a.5.5 0 0 0 .707 0ZM14 20h2v-1h-2v1Zm-5 0h4v-1H9v1Z"/>
</svg>
