<svg width="40" height="40" viewBox="0 0 40 40" xmlns="http://www.w3.org/2000/svg" role="img" aria-labelledby="title">
  <title id="title">AWS Amplify</title>
  <rect width="40" height="40" fill="#DD344C"/>
  <path fill="#FFF" d="M29.023 30 19.018 11h2.872l10.003 19h-2.87Zm-6.389-19.733A.5.5 0 0 0 22.192 10H18.19a.5.5 0 0 0-.442.733l10.531 20A.5.5 0 0 0 28.721 31h4a.5.5 0 0 0 .443-.733l-10.53-20ZM22.808 30l-7.237-14.472 1.37-2.451L25.678 30h-2.87Zm-5.405-18.208a.5.5 0 0 0-.444-.271.5.5 0 0 0-.437.256l-1.953 3.494a.5.5 0 0 0-.011.468l7.494 14.985a.5.5 0 0 0 .448.276h4a.5.5 0 0 0 .444-.729l-9.541-18.479ZM7.354 30l6.504-11.574 1.075 2.069-3.684 6.805a.5.5 0 0 0 .439.739h6.999l.997 1.961H7.354Zm12.085-2.688a.5.5 0 0 0-.445-.273h-6.466l3.411-6.301a.5.5 0 0 0 .004-.468l-1.625-3.125a.5.5 0 0 0-.443-.27.5.5 0 0 0-.436.255L6.064 30.255A.5.5 0 0 0 6.5 31h14a.5.5 0 0 0 .445-.727l-1.506-2.961Z"/>
</svg>
